<?xml version="1.0" encoding="utf-8"?>
<svg version="1.1" id="Layer_1" xmlns="http://www.w3.org/2000/svg" xmlns:xlink="http://www.w3.org/1999/xlink" x="0px" y="0px"
	 width="16px" height="16px" viewBox="0 0 16 16" style="enable-background:new 0 0 16 16;" xml:space="preserve">
<path fill="#e1e1e1" d="M9.8,3.1c0-0.9-0.7-1.6-1.6-1.6S6.5,2.2,6.5,3.1s0.7,1.6,1.6,1.6S9.8,4,9.8,3.1z M9.8,12.9
	c0-0.9-0.7-1.6-1.6-1.6S6.5,12,6.5,12.9s0.7,1.6,1.6,1.6S9.8,13.8,9.8,12.9z M9.8,8c0-0.9-0.7-1.6-1.6-1.6S6.5,7.1,6.5,8
	s0.7,1.6,1.6,1.6S9.8,8.9,9.8,8z"/>
</svg>
