<?xml version="1.0" standalone="no"?>
<!DOCTYPE svg PUBLIC "-//W3C//DTD SVG 1.1//EN" "http://www.w3.org/Graphics/SVG/1.1/DTD/svg11.dtd" >
<!--
2013-9-30: Created.
-->
<svg>
<metadata>
Created by iconfont
</metadata>
<defs>

<font id="iconfont" horiz-adv-x="1024" >
  <font-face
    font-family="iconfont"
    font-weight="500"
    font-stretch="normal"
    units-per-em="1024"
    ascent="896"
    descent="-128"
  />
    <missing-glyph />
    
    <glyph glyph-name="guanliyuan" unicode="&#58880;" d="M878.592 114.688q4.096-14.336 7.168-36.352t3.072-44.544-3.584-42.496-10.752-30.208q-5.12-7.168-26.112-13.824t-52.736-12.288-70.656-10.752-77.824-8.704-75.776-5.12-64.512-1.536-64 2.048-74.752 5.12-76.288 7.168-69.12 9.216-53.248 9.728-27.136 9.728q-9.216 7.168-14.336 45.568t4.096 99.84q5.12 34.816 28.16 53.248t53.248 29.184 63.488 18.944 57.856 24.576q19.456 12.288 30.208 23.552t15.36 22.528 4.608 23.552-1.024 27.648q-2.048 22.528-14.848 34.816t-28.16 25.6q-8.192 6.144-13.824 17.92t-10.752 24.064q-5.12 13.312-9.216 29.696-2.048 2.048-6.144 7.168-3.072 5.12-7.168 13.824t-9.216 25.088-6.656 29.184 0.512 22.016q1.024 11.264 5.12 19.456 0 35.84 4.096 71.68 4.096 29.696 13.312 64.512t29.696 62.464q18.432 25.6 39.936 42.496t44.544 26.112 46.592 12.8 45.056 3.584q23.552-2.048 38.4-5.632t24.064-8.704 15.872-12.288 13.824-14.336l19.456 0q9.216 0 17.92-2.56t17.408-9.728 18.944-20.48q23.552-30.72 34.816-67.072t16.384-69.12q5.12-37.888 6.144-74.752 2.048-5.12 3.072-12.288t1.536-17.408-1.536-25.6q-2.048-20.48-6.144-32.256t-9.216-17.92q-5.12-7.168-11.264-10.24-4.096-16.384-9.216-29.696-5.12-12.288-10.752-24.064t-13.824-17.92q-17.408-14.336-28.672-24.064t-15.36-33.28q-3.072-14.336-2.048-28.672t7.68-29.184 21.504-28.16 41.472-23.552q23.552-9.216 51.712-16.896t54.272-17.408 46.592-25.088 28.672-39.936zM549.888 148.48q3.072 6.144 0.512 12.8t-7.68 12.8-12.288 13.312l-47.104 0q-7.168-7.168-11.264-13.312-4.096-5.12-6.656-11.264t0.512-11.264q7.168-14.336 12.288-25.088t11.264-16.896q-2.048-9.216-6.144-26.112t-7.68-34.816-6.144-33.792-2.56-24.064q0-5.12 4.608-12.288t10.752-14.848 12.8-12.8 11.776-5.12 12.288 5.12 13.824 11.776 11.264 14.336 4.608 12.8q0 6.144-3.072 20.992t-6.656 33.28-7.68 35.84-7.168 27.648q6.144 5.12 11.776 14.848t13.824 26.112z"  horiz-adv-x="1024" />

    
    <glyph glyph-name="zhengzaibaocun1" unicode="&#59105;" d="M699.8 492.7l0.3-0.5c10-16.5 27.9-25.7 46.1-25.7 8.8 0 17.7 2.2 25.8 6.7l150.6 86.8c12.2 7 21 18.5 24.5 32.2 3.5 13.6 1.6 27.7-5.6 39.7-7 12.3-18.7 21.4-32.3 25-13.5 3.6-27.5 1.6-39.5-5.6l-150.3-86.6C694.4 550.5 685.6 518.2 699.8 492.7zM344.9 93.89999999999998l-0.3 0.2c-12.3 6.9-26.5 8.6-40.1 5-13.6-3.6-25.1-12.3-32.3-24.4l-27.4-47.9c-7.2-12.3-9.1-26.6-5.4-40.2 3.7-13.7 12.6-25 24.9-32 8.1-4.7 17.1-7.2 26.3-7.2 4.5 0 9 0.6 13.4 1.7 13.7 3.6 25.3 12.5 32.5 24.9l27.2 47.6c7.1 11.8 9.1 25.7 5.7 39.3C365.9 74.79999999999995 357 86.79999999999995 344.9 93.89999999999998zM247.3 231.10000000000002c-14.1 25.1-46.4 33.9-72 19.7l-73.7-42.6c-12.3-7.1-21.1-18.7-24.6-32.6-3.5-13.6-1.5-27.7 5.7-39.6 6.7-11.9 17.7-20.5 31-24.3 4.9-1.4 9.9-2.1 14.8-2.1 9.1 0 18 2.3 26.2 6.9l73.1 42.6C253 173.70000000000005 261.7 206 247.3 231.10000000000002zM335.9 794.1c-7 12.2-18.5 20.9-32.2 24.6-13.6 3.6-27.6 1.7-39.5-5.4-12.2-7-21-18.4-24.6-31.9-3.7-13.6-1.8-27.8 5.2-39.9L331.2 591.3l0.1-0.2c10.1-16.8 27.9-26.2 46-26.2 9 0 18.1 2.3 26.4 7.2 12 6.9 20.6 18.1 24.3 31.6 3.7 13.8 1.8 28.3-5.4 40.6L335.9 794.1zM235.7 384.2c0 29.1-23.6 52.7-52.7 52.7L68.7 436.9c-29.1 0-52.7-23.8-52.7-53 0-29.1 23.6-52.7 52.7-52.7L183 331.20000000000005C212.1 331.20000000000005 235.7 355 235.7 384.2zM101.7 560l124.7-71.8c8.2-4.7 17.1-6.9 26-6.9 18.3 0 36.2 9.5 46.1 26.3l0.2 0.3c14.1 25.2 5.3 57.3-19.6 71.5L154.8 651.5c-12.6 7.2-27.1 9-41 5.1-13.4-3.8-24.5-12.6-31.2-24.7-7.2-12.3-9.2-26.5-5.5-40.2C80.7 578.1 89.5 566.9 101.7 560zM511.9 19.100000000000023c-29.1 0-52.7-23.6-52.7-52.7l0-25.7c0-29.1 23.6-52.7 52.7-52.7 29.4 0 53.2 23.6 53.2 52.7l0 25.7C565.1-4.5 541.2 19.100000000000023 511.9 19.100000000000023zM707.2 46.10000000000002l-0.3-0.1c-12.2-7.2-21.1-19.2-24.5-32.9-3.3-13.5-1.2-27.3 6-39.1 7-12.1 18.2-20.7 31.6-24.4 4.5-1.2 9.1-1.8 13.7-1.8 9.1 0 18 2.4 26.1 7.1 12.2 6.7 20.9 17.9 24.7 31.4 3.8 13.7 1.8 28.5-5.4 40.7C764.4 52.10000000000002 732.7 60.5 707.2 46.10000000000002zM992.9 421.2c-9.9 10.1-23.3 15.6-37.7 15.6L782 436.8c-29.1 0-52.7-23.6-52.7-52.7 0-29.2 23.7-53 52.7-53l173.3 0c14.3 0 27.6 5.5 37.5 15.5 9.8 9.9 15.2 23.1 15.2 37.1C1008.2 397.9 1002.8 411.2 992.9 421.2zM692.8 591.4l86.7 150c7.2 12.3 9.2 26.6 5.5 40.3-3.7 13.7-12.6 25.1-25 32-25.5 14.4-57.1 5.9-72-19.4L601.3 644.3l-0.1-0.1c-14.4-25.3-5.8-57.8 19.3-72.3 8-4.6 17.2-7 26.4-7 4.7 0 9.5 0.6 14.2 1.9C674.8 570.5 686 579.3 692.8 591.4zM511.9 880c-28.6 0-52.7-24.3-52.7-53l0-173c0-29.3 23.6-53.2 52.7-53.2l0.1 0 0.1 0c14.2 0.2 27.5 5.7 37.5 15.7 10 10 15.5 23.3 15.5 37.5l0 173C565.1 856.3 541.2 880 511.9 880z"  horiz-adv-x="1024" />

    
    <glyph glyph-name="loading" unicode="&#61155;" d="M960.4 449c-7.6 98.5-50.3 191.3-120.4 261.3S677.1 823.1 578.7 830.7c-9.9 0.8-19.7-2.6-27-9.3-7.4-6.7-11.6-16.4-11.6-26.4 0-18.6 14.5-34.4 33-35.8 36.6-2.8 72.5-11.5 106.7-25.9 40.9-17.2 77.6-42 109.3-73.7s56.5-68.5 73.7-109.3c14.3-34.1 23.1-70 25.9-106.7 1.5-18.5 17.2-33 35.8-33 10 0 19.7 4.2 26.6 11.4C957.8 429.3 961.2 439.2 960.4 449z"  horiz-adv-x="1024" />

    
    <glyph glyph-name="tupianicon" unicode="&#58920;" d="M967.923808 616.997716 928.914285 622.117024 924.038096 622.117024 924.038096 622.117024C914.285715 624.676678 906.971427 632.35564 902.095238 642.594256L902.095238 645.15391 902.095238 645.15391 860.647619 847.366574C853.333334 878.082422 824.076192 898.559654 794.819046 890.880692L51.2 716.824221C21.942857 709.14526 2.438095 678.429412 9.752381 647.713564L99.961905 225.370656 99.961905 225.370656 99.961905 222.811005 99.961905 217.691696 99.961905 215.132042 99.961905 212.572387 99.961905 212.572387 80.457143 41.075571C78.019048 10.359722 97.52381-20.356125 129.219048-22.915779L885.028573-117.622976C914.285715-120.18263 943.542858-99.705398 945.980954-66.429898L975.238096 186.975846 984.990477 266.32512 1016.685715 553.006368C1019.123808 583.722214 999.619046 611.878408 967.923808 616.997716L967.923808 616.997716ZM399.847619 711.704913 402.285715 711.704913 768 796.173495C780.190477 798.733149 794.819046 791.054187 797.257142 778.255917 797.257142 778.255917 797.257142 778.255917 797.257142 775.696263 797.257142 775.696263 797.257142 775.696263 797.257142 773.136609L824.076192 647.713564 824.076192 647.713564C824.076192 647.713564 824.076192 647.713564 824.076192 645.15391L824.076192 642.594256C824.076192 634.915294 819.2 629.795986 811.885715 629.795986L811.885715 629.795986 809.447619 629.795986 746.057142 637.474948 638.780954 650.273218 399.847619 680.989066 397.409523 680.989066 397.409523 680.989066C392.533334 680.989066 387.657142 688.668028 387.657142 693.787336 392.533334 706.585605 394.971427 709.14526 399.847619 711.704913L399.847619 711.704913ZM146.285714 632.35564 134.095238 532.529136 134.095238 532.529136 134.095238 527.409827 134.095238 527.409827C131.657143 522.290518 126.780952 517.17121 121.904762 517.17121 117.028572 517.17121 112.152381 519.730864 109.714286 524.850173L109.714286 529.969482 92.647619 609.318754C92.647619 609.318754 92.647619 609.318754 92.647619 611.878408 92.647619 611.878408 92.647619 611.878408 92.647619 614.438062 90.209524 627.236332 99.961905 642.594256 112.152381 645.15391L129.219048 650.273218 129.219048 650.273218 134.095238 650.273218 134.095238 650.273218C141.409524 650.273218 146.285714 645.15391 146.285714 637.474948L146.285714 637.474948C148.72381 634.915294 148.72381 634.915294 146.285714 632.35564L146.285714 632.35564ZM936.228573 509.49225 936.228573 509.49225 936.228573 506.932595 936.228573 499.253632 909.409523 258.64616 897.219046 158.819654 877.714285-10.11751C877.714285-10.11751 877.714285-10.11751 877.714285-12.677162 877.714285-12.677162 877.714285-12.677162 877.714285-15.236816 875.276192-28.035088 865.523808-38.273702 850.895238-38.273702L848.457142-38.273702 846.019046-38.273702 338.895238 25.717648 182.857143 46.19488 180.419048 46.19488 177.980952 46.19488C165.790476 48.754531 156.038095 61.552803 158.47619 74.351072 158.47619 74.351072 158.47619 74.351072 158.47619 76.910726 158.47619 76.910726 158.47619 76.910726 158.47619 79.470381L175.542857 222.811005 216.990476 596.520484C216.990476 596.520484 216.990476 596.520484 216.990476 599.080138 216.990476 601.639792 216.990476 599.080138 216.990476 601.639792 219.428572 614.438062 231.619048 624.676678 243.809524 622.117024L846.019046 547.887059 911.847619 540.208096C916.723808 540.208096 921.6 537.648442 926.476192 532.529136 933.790477 524.850173 936.228573 517.17121 936.228573 509.49225L936.228573 509.49225ZM797.257142 465.978131C765.561904 471.09744 738.742858 445.500899 733.866666 414.785053 733.866666 407.10609 733.866666 399.427126 736.304762 391.748166 741.180954 368.71128 760.685715 350.793702 785.066666 348.234048L789.942858 348.234048C819.2 348.234048 843.580954 368.71128 846.019046 399.427126 848.457142 432.70263 826.514285 463.418477 797.257142 465.978131L797.257142 465.978131ZM794.819046 99.947613 775.314285 130.663459 733.866666 199.774118 680.228573 284.242698 675.352381 294.481315C670.476192 302.160275 665.6 304.71993 655.847619 307.279584 648.533334 307.279584 641.219046 304.71993 633.904762 299.600624L611.961904 279.123392 609.523808 276.563738C607.085715 274.004083 602.209523 271.444429 597.333334 271.444429L590.019046 271.444429C582.704762 271.444429 577.828573 276.563738 572.952381 281.683043 570.514285 284.242698 570.514285 284.242698 570.514285 286.802352L512 384.069203C507.123808 391.748166 497.371427 399.427126 487.619046 399.427126 477.866666 401.986781 468.114285 396.867475 460.8 389.188512L268.190476 194.65481 251.12381 179.296886 248.685714 176.737232C246.247619 174.177578 243.809524 169.058269 243.809524 163.938963 241.371428 151.140691 251.12381 138.342422 263.314286 138.342422L263.314286 138.342422 314.514286 130.663459 331.580954 128.103805 336.457142 128.103805 387.657142 122.984499 485.180954 110.186227 524.190477 105.066922 536.380954 102.507267 538.819046 102.507267 609.523808 94.828304 650.971427 89.708995 724.114285 79.470381 726.552381 79.470381 750.933334 76.910726 780.190477 74.351072C789.942858 74.351072 797.257142 79.470381 799.695238 89.708995 799.695238 92.26865 799.695238 97.387958 797.257142 99.947613L794.819046 99.947613 794.819046 99.947613Z"  horiz-adv-x="1024" />

    
    <glyph glyph-name="copy" unicode="&#59000;" d="M877.714286-128H365.714286a146.285714 146.285714 0 0 0-146.285715 146.285714V603.4285709999999a146.285714 146.285714 0 0 0 146.285715 146.285715h512a146.285714 146.285714 0 0 0 146.285714-146.285715v-585.142857a146.285714 146.285714 0 0 0-146.285714-146.285714zM365.714286 676.571429a73.142857 73.142857 0 0 1-73.142857-73.142858v-585.142857a73.142857 73.142857 0 0 1 73.142857-73.142857h512a73.142857 73.142857 0 0 1 73.142857 73.142857V603.4285709999999a73.142857 73.142857 0 0 1-73.142857 73.142858zM174.811429 91.42857100000003H146.285714a73.142857 73.142857 0 0 0-73.142857 73.142858V749.714286a73.142857 73.142857 0 0 0 73.142857 73.142857h512a73.142857 73.142857 0 0 0 53.394286-23.405714h84.114286A146.285714 146.285714 0 0 1 658.285714 896H146.285714a146.285714 146.285714 0 0 1-146.285714-146.285714v-585.142857a146.285714 146.285714 0 0 1 146.285714-146.285715h29.988572v8.045715zM825.051429 465.92H397.165714a36.571429 36.571429 0 1 0 0 73.142857h427.885715a36.571429 36.571429 0 1 0 0-73.142857zM711.68 310.85714299999995h-314.514286a36.571429 36.571429 0 0 0 0 73.142857h314.514286a36.571429 36.571429 0 1 0 0-73.142857zM531.748571 164.57142899999997H397.165714a36.571429 36.571429 0 1 0 0 73.142857h134.582857a36.571429 36.571429 0 1 0 0-73.142857z"  horiz-adv-x="1024" />

    
    <glyph glyph-name="pingmufanzhuan-" unicode="&#58994;" d="M899.58475852 377.00949333000005h-396.12871111v396.12871112c0 59.80766815-48.93354667 108.74121482-108.74121482 108.7412148h-271.85303704c-59.80766815 0-108.74121482-48.93354667-108.7412148-108.7412148v-621.37837037c0-59.80766815 48.93354667-108.74121482 108.7412148-108.74121483h46.60337778v-46.60337777c0-59.80766815 48.93354667-108.74121482 108.74121482-108.74121481h621.37837037c59.80766815 0 108.74121482 48.93354667 108.74121481 108.74121481v271.85303704c0 60.58439111-48.1568237 108.74121482-108.74121481 108.74121481z m-823.32634074-225.24965925v621.37837037c0 25.63185778 20.97152 46.60337778 46.60337777 46.60337777h271.85303704c25.63185778 0 46.60337778-20.97152 46.60337778-46.60337777v-621.37837037c0-25.63185778-20.97152-46.60337778-46.60337778-46.60337778h-271.85303704c-25.63185778 0-46.60337778 20.97152-46.60337777 46.60337778z m869.92971852-155.3445926c0-25.63185778-20.97152-46.60337778-46.60337778-46.60337778h-621.37837037c-25.63185778 0-46.60337778 20.97152-46.60337778 46.60337778v46.60337777h163.11182222c59.80766815 0 108.74121482 48.93354667 108.74121482 108.74121483v163.11182222h396.12871111c25.63185778 0 46.60337778-20.97152 46.60337778-46.60337778v-271.85303704zM870.84600889 620.1237807499999v-43.49648593l-56.7007763 56.70077629-44.27320889-44.27320889 132.04290371-132.0429037 132.0429037 132.0429037-44.27320889 44.27320889-56.7007763-56.70077629v43.49648593c0 102.52743111-83.88608 186.41351111-186.4135111 186.4135111H588.89557333v-62.13783703h156.89803852c69.1283437 0 125.05239703-55.92405333 125.05239704-124.27567407z"  horiz-adv-x="1024" />

    
    <glyph glyph-name="fenxiang" unicode="&#58991;" d="M866.474667 584.661333A565.077333 565.077333 0 0 1 380.373333 374.186667a32 32 0 0 0-49.92 40.021333 629.077333 629.077333 0 0 0 534.186667 234.752l-95.146667 95.146667a32 32 0 0 0 45.226667 45.226666l150.869333-150.826666a32 32 0 0 0 0-45.226667l-150.826666-150.869333a32 32 0 1 0-45.269334 45.226666l96.981334 97.024zM490.666667 810.666667v-64H170.666667a21.333333 21.333333 0 0 1-21.333334-21.333334v-682.666666a21.333333 21.333333 0 0 1 21.333334-21.333334h682.666666a21.333333 21.333333 0 0 1 21.333334 21.248l-1.408 320.085334h64L938.666667 42.666667a85.333333 85.333333 0 0 0-85.333334-85.333334H170.666667a85.333333 85.333333 0 0 0-85.333334 85.333334V725.333333a85.333333 85.333333 0 0 0 85.333334 85.333334h320z"  horiz-adv-x="1024" />

    
    <glyph glyph-name="dianzan" unicode="&#58909;" d="M1003.986616 479.946396C973.599014 514.1524549999999 928.051908 514.1524549999999 912.800944 514.1524549999999H734.213761c-49.39986 0-72.196278 3.795592-83.594487 7.602617 60.798069 94.981264 49.39986 235.566796 7.625482 311.570098-22.865013 41.785811-53.218318 60.786637-87.412945 60.786637h-3.795592c-15.205234 3.807025-49.411293 3.807025-72.207711-19.000825-15.193801-15.193801-22.796418-38.001651-19.000825-64.593662C491.032916 620.531928 293.45634 517.948047 259.25028 498.947222c-7.602617 7.602617-11.432506 7.602617-22.796418 7.602616H31.274669c-15.205234 0-30.399035-15.205234-30.399035-30.399034V-97.60096499999997c0-15.193801 15.193801-30.399035 30.399035-30.399035h208.986218c7.602617 0 15.193801 3.795592 22.796418 7.602617 3.795592-3.795592 3.795592-7.602617 7.602617-7.602617 0 0 372.368168 3.795592 497.759898 3.795592s174.780159 208.986218 212.781811 376.129463c7.602617 38.001651 15.193801 72.196278 26.603442 102.595313 22.796418 53.195453 19.000826 94.992696-3.795592 125.39173z m-790.329171-547.148327H69.264888v516.749292h144.392557z m740.940743 433.166237c-7.602617-30.399035-15.193801-64.593661-26.603443-106.390905-30.399035-129.187323-75.99187-330.570924-151.98374-330.570924-121.584706 0-471.156456-3.795592-497.759899-3.795592V434.35356c3.795592 0 7.602617 0 11.432506 3.795592 11.432506 3.795592 281.171064 125.391731 258.374646 376.129463 0 11.432506 3.795592 15.193801 0 15.193801 3.795592 3.795592 7.602617 3.795592 22.796418 3.795592h7.602617c7.602617 0 22.796418-11.432506 30.399035-30.399035 34.194627-64.593661 38.001651-182.382775-11.432507-254.579054-15.193801-26.603443-11.432506-45.592836-7.602617-56.991044 15.193801-30.399035 60.798069-41.797244 144.392557-41.797244H916.619402c7.602617 0 30.399035 0 38.001651-11.432506 11.432506-7.602617 7.602617-34.194627 0-72.196279z"  horiz-adv-x="1024" />

    
    <glyph glyph-name="daoxu" unicode="&#58911;" d="M609.405678 820.180924c22.864619 0 41.476418 16.965547 41.476418 37.886673S632.270297 896 609.405678 896s-41.476418-16.965547-41.476418-37.886673S586.541059 820.180924 609.405678 820.180924zM360.684355-90.01382000000001V850.762352a34.982867 34.982867 0 0 1-2.286462 19.640707A38.595476 38.595476 0 0 1 341.889638 889.780824C322.786249 901.24743 297.074986 896.354402 284.52231 878.851536L14.92559 659.96854c-17.560027-13.444396-19.892218-37.32649-5.224565-53.400317l0.068593-0.068594c14.679085-16.005233 40.79048-18.12021 58.304778-4.710111l209.668554 170.204222v-862.053289c0-20.909694 18.588935-37.852376 41.476419-37.840944s41.442122 16.976979 41.419257 37.886673z m331.616998 644.725088c0-20.978288 18.543206-37.932403 41.43069-37.932403h248.732755c22.864619 0 41.453554 16.954115 41.453554 37.932403s-18.56607 37.886673-41.453554 37.886673H733.732043c-22.864619 0-41.430689-16.954115-41.43069-37.886673zM609.405678 668.497043c22.864619 0 41.476418 16.965547 41.476418 37.886674S632.270297 744.258958 609.405678 744.258958s-41.476418-16.965547-41.476418-37.886674S586.541059 668.497043 609.405678 668.497043z m309.484047-506.977192v0.057162c-14.679085 16.005233-40.813345 18.154507-58.304778 4.744408L650.824935-3.91709800000001V369.19918399999995a368.474764 368.474764 0 0 0-82.929972 52.817269v-504.713595a34.914273 34.914273 0 0 1 2.217868-19.549249 38.51545 38.51545 0 0 1 16.668307-19.617843c19.171983-11.432309 44.814653-6.413526 57.27587 11.100773l269.59672 218.871563c17.57146 13.432964 19.903651 37.32649 5.235997 53.400317zM982.464798 668.497043c22.864619 0 41.442122 16.976979 41.430689 37.886674s-18.56607 37.932403-41.453554 37.932402H733.732043c-22.864619 0-41.430689-16.954115-41.43069-37.932402S710.844559 668.497043 733.732043 668.497043h248.732755z m0 151.706746c22.864619 0 41.442122 16.976979 41.430689 37.886673S1005.352281 896 982.464798 896H733.732043c-22.864619 0-41.430689-16.954115-41.43069-37.932403s18.543206-37.886673 41.43069-37.886673h248.732755zM609.405678 516.778865c22.864619 0 41.419257 17.022709 41.38496 37.932403S632.270297 592.575077 609.405678 592.575077s-41.453554-16.954115-41.453554-37.863809S586.541059 516.778865 609.405678 516.778865z"  horiz-adv-x="1024" />

    
    <glyph glyph-name="liulanliang" unicode="&#58914;" d="M721.151571 896C322.866574 896 0 384.082012 0 384.082012s322.866574-511.917988 721.151571-511.917988C1131.0357-138.6008690000001 1442.271056 384.082012 1442.271056 384.082012S1119.436568 896 721.151571 896z m-1.026756-920.871619C380.573459-24.87161900000001 105.178299 385.108768 105.178299 385.108768S380.557416 795.089155 720.124815 795.089155s614.898387-409.980387 614.898387-409.980387S1059.740343-24.87161900000001 720.124815-24.87161900000001z m-3.208612 666.444737a257.555278 257.555278 0 1 1 257.523192-257.491106 257.523192 257.523192 0 0 1-257.507149 257.555278z m0-412.082028a154.52675 154.52675 0 1 0 154.478621 154.52675 154.510707 154.510707 0 0 0-154.462578-154.462578z"  horiz-adv-x="1442" />

    
    <glyph glyph-name="pinglun" unicode="&#58916;" d="M869.22244443-66h-2.64581015C783.88146494-57.735927540000034 705.79196474-2.4025696300000163 652.85399023 45.30911366999999H247.26113281C145.37023174 45.30911366999999 62 125.44557772999997 62 223.39498418000005V655.90324072C62 753.86353594 145.37023174 834 247.26113281 834H851.38772539c101.89090107 0 185.26113281-80.13646406 185.26113281-178.09675927V223.39498418000005c0-96.04398779-79.39607344-174.2750332-177.98787773-178.09675928 8.60160411-27.35092354 23.82317753-56.6181545 31.76060713-70.59848291a25.22774268 25.22774268 0 0 0 5.29161943-15.24334922c0.66417451-13.99121719-11.24741426-25.44550488-26.46898682-25.44550488zM247.26113281 783.75138808C174.48502872 783.75138808 114.92708575 726.5126124 114.92708575 656.5238627900001v-432.48647988c0-69.96697295 59.55794297-127.16219619 132.33404706-127.16219707h416.18698506a29.08213242 29.08213242 0 0 0 18.50978145-7.00105254c29.77897148-27.35092354 82.04188271-69.96697295 138.94312763-91.59075176-9.26577862 22.26617754-18.50978144 48.34319326-19.84901836 71.24088076a23.43120557 23.43120557 0 0 0 7.27325508 19.07596231c5.29161943 5.08474599 11.91158877 8.26407246 19.18484385 8.26407334h24.47646416c72.786992 0 132.33404707 57.23877656 132.33404707 127.20574863V656.5238627900001c0 69.96697295-59.54705508 127.20574864-132.33404707 127.20574951zM272.40177148 435.83283164a60.8754041 60.8754041 0 1 1 121.73991944 0 60.8754041 60.8754041 0 1 1-121.73991944 0zM488.81377724 435.83283164a60.8754041 60.8754041 0 1 1 60.87540323 61.06050088A60.97339688 60.97339688 0 0 1 488.81377724 435.83283164zM705.12779023 435.83283164a60.8754041 60.8754041 0 1 1 121.73991944 0 60.8754041 60.8754041 0 1 1-121.73991944 0z"  horiz-adv-x="1108" />

    
    <glyph glyph-name="jiandao" unicode="&#58918;" d="M871.653733 186.90757599999995a170.702788 170.702788 0 0 0 57.159484-60.387609q21.570262-37.745107 21.570262-83.041516a163.288367 163.288367 0 0 0-13.48284-66.319146 168.261733 168.261733 0 0 0-36.661461-53.383832A179.714162 179.714162 0 0 0 846.307819-112.36127499999998a163.288367 163.288367 0 0 0-66.319145-13.482839q-45.29641 0-82.505397 21.570262a175.801629 175.801629 0 0 0-59.851489 56.075837 60.136659 60.136659 0 0 0-7.551302 9.125441 68.725981 68.725981 0 0 1-8.623543 10.266122q-17.258491 23.726148-21.570262 58.231723a468.36328 468.36328 0 0 0-3.239531 71.714563q1.083646 37.208987 2.155885 73.334328t-5.395417 64.16326q-11.863074 21.570262-26.965679 46.916175t-33.433336 51.227947q-3.239532 4.311771-5.931537 7.551303a75.843825 75.843825 0 0 0-4.847891 6.467657q-20.532243-24.798387-39.923806-49.608181t-39.923806-51.764067a95.349456 95.349456 0 0 1-9.125442-12.94672 95.349456 95.349456 0 0 0-9.125441-12.94672q-9.707188-20.532243-9.707188-35.589221a117.69538 117.69538 0 0 1 3.775651-29.657685q3.775651-14.555079 8.623542-29.657684t5.395417-35.053102q0.53612-19.950496-5.395417-46.916176t-23.212841-64.653752q-18.33073-48.524535-61.471255-79.265865t-98.098495-30.729924a163.288367 163.288367 0 0 0-66.319146 13.482839 174.250304 174.250304 0 0 0-90.592819 90.59282A169.664769 169.664769 0 0 0 89.785914 114.63408000000004a172.322554 172.322554 0 0 0 44.212763 57.159484 308.816344 308.816344 0 0 0 56.623364 46.916175q29.657685 18.878257 58.77925 35.053102t55.539717 32.34969a191.70271 191.70271 0 0 1 45.83253 38.783126q4.311771 5.395417 8.087422 10.779427t8.087423 10.779428l1.083646 1.083646a62.338172 62.338172 0 0 0 11.863074 16.174845q15.102606 19.391563 30.193804 40.437112t31.27745 42.592998q-28.037919 29.121565-47.988415 47.452295a302.508382 302.508382 0 0 0-38.281226 43.140525A598.594735 598.594735 0 0 0 291.480982 640.921099q-25.882033 53.919952-39.923806 102.455894t-14.566486 86.817168q-0.53612 38.281227 13.48284 56.623364Q258.024833 892.201535 272.089419 894.85932t22.642502-10.266122q19.391563-29.121565 44.212763-66.866672T392.864636 736.3047750000001q29.121565-43.676644 60.387609-91.128939t62.554901-93.820944q6.467657 8.623542 12.399193 17.794611t12.399194 17.79461q29.087344 42.136726 56.041617 86.874202t50.189927 85.733522q23.190028 40.984639 40.984639 73.870449t27.501799 50.189927Q722.829191 895.441067 741.159921 896t31.27745-11.326954q6.467657-6.467657 11.326954-37.208987t-3.239531-79.265866q-8.087422-48.524535-34.505575-111.615555t-82.505398-134.28087l-34.505575-43.140524q-17.258491-21.570262-35.589221-43.140525 24.798387-37.745107 46.916175-71.178443t40.437112-60.387608q26.965679-28.037919 54.456072-44.212764a573.670874 573.670874 0 0 1 52.300186-27.501799q24.798387-11.326954 46.368649-21.034142a137.486182 137.486182 0 0 0 37.745107-24.798387zM242.922227-35.25129500000003q34.505575 0 58.77925 24.798387t24.262267 59.315369q0 34.505575-24.262267 59.315369t-58.77925 24.798387q-34.505575 0-59.315369-24.798387t-24.798387-59.315369q0-34.505575 24.798387-59.315369t59.315369-24.798387z m535.982801 0q34.505575 0 58.779249 24.262267t24.262268 58.77925q0 34.505575-24.262268 59.315369t-58.779249 24.798387q-34.505575 0-59.315369-24.798387t-24.798387-59.315369a81.250649 81.250649 0 0 1 6.467656-32.395317 83.486382 83.486382 0 0 1 17.794611-26.418153 81.969277 81.969277 0 0 1 26.96568-17.794611 85.185995 85.185995 0 0 1 32.885809-6.433436z"  horiz-adv-x="1024" />

    
    <glyph glyph-name="shanchu" unicode="&#58919;" d="M990.143659 780.748993H728.940047V802.957929A93.236385 93.236385 0 0 1 635.726523 896H398.915021a93.236385 93.236385 0 0 1-93.224954-93.042071v-22.208936H35.170817a35.113666 35.113666 0 1 1 0-70.227332H150.307522v-703.130589c0-74.650831 60.854544-135.379642 135.642538-135.379642h466.284796c74.787994 0 135.642537 60.728811 135.642537 135.379642V710.51023h102.266266a35.113666 35.113666 0 1 1 0 70.227332z m-614.157679 0V802.957929a22.86046 22.86046 0 0 0 22.86046 22.86046h236.880083a22.86046 22.86046 0 0 0 22.860459-22.86046v-22.208936z m441.549779-72.07903v-701.278891a65.312333 65.312333 0 0 0-65.300903-65.15231H285.95006a65.312333 65.312333 0 0 0-65.300903 65.15231V708.658533zM669.457131 48.905666999999994a35.182247 35.182247 0 0 1 35.182247 35.102236V560.899952a35.182247 35.182247 0 0 1-70.364494 0v-476.892049a35.182247 35.182247 0 0 1 35.182247-35.102236zM361.263844 48.905666999999994a35.182247 35.182247 0 0 1 35.182248 35.102236V560.899952a35.182247 35.182247 0 0 1-70.364495 0v-476.892049a35.182247 35.182247 0 0 1 35.182247-35.102236zM513.640238-17.949747000000002a35.182247 35.182247 0 0 1 35.182247 35.102236v610.602877a35.182247 35.182247 0 0 1-70.364494 0v-610.602877a35.182247 35.182247 0 0 1 35.182247-35.102236z"  horiz-adv-x="1025" />

    
    <glyph glyph-name="chongzhi" unicode="&#58915;" d="M1161.044498 224.423408c-13.074774 160.107725-85.439116 278.259666-215.034721 351.154767C838.252929 636.175221 690.456203 666.855631 494.347541 669.444695V860.64708A35.288944 35.288944 0 0 1 434.074129 885.631549L10.412621 462.021823l-0.077672-0.077672a35.288944 35.288944 0 0 1 0-49.904211l423.73918-423.674453a35.081819 35.081819 0 0 1 24.958578-10.356257 35.353671 35.353671 0 0 1 35.314834 35.30189V230.70188900000005c91.756432 12.53107 171.538443 12.142711 237.223001-1.178024C797.992982 216.04778599999997 850.563929 189.17330000000004 887.665217 149.793635c66.021135-70.124802 74.88868-169.428356 70.642615-240.381658v-2.045361A35.32778 35.32778 0 0 1 993.532049-127.98705500000005a35.353671 35.353671 0 0 1 25.81297 11.236539c63.742759 68.312457 150.851821 229.119229 141.699479 341.173924zM463.731858 295.71328900000003a9.942006 9.942006 0 0 0-2.835025-0.763774h-2.006525c-20.712513 0-35.172436-12.764086-35.172436-31.06877V98.55605600000001L85.314246 436.998518 423.730817 775.402144v-141.103995a37.062453 37.062453 0 0 1 10.356257-25.890641c7.094036-7.08109 16.181651-11.132976 25.010359-11.132976l8.285006 0.970899c204.885589 0 354.209863-30.460339 456.516731-93.012128 101.581931-62.137539 156.146457-155.822824 166.826347-286.544672 3.482291-42.641886-15.793291-121.983756-65.904628-207.850067-11.145921 75.71718-39.871587 138.68322-85.749803 187.396461-70.202474 74.526211-177.674525 112.313602-319.451677 112.313601-42.719558 0-91.911776-4.03894-146.282123-12.013257l-0.99679-0.142399-1.695837-0.776719-2.213649-0.660211a19.094348 19.094348 0 0 1-4.699152-1.242751z"  horiz-adv-x="1161" />

    
    <glyph glyph-name="tuichu" unicode="&#58923;" d="M513.691693-128C230.436006-128 0 102.39028399999995 0 385.577389c0 135.404014 52.13386 263.161119 146.834371 359.713348a47.184515 47.184515 0 0 0 67.370527-66.078896A416.990869 416.990869 0 0 1 94.369031 385.577389c0-231.156118 188.097962-419.208358 419.322662-419.208358s419.494117 188.05224 419.494117 419.208358a416.327908 416.327908 0 0 1-122.979215 296.537763 47.184515 47.184515 0 0 0 66.673275 66.764718c97.158038-96.998013 150.62925-226.012457 150.62925-363.313911 0.01143-283.175675-230.504588-513.565959-513.817427-513.565959z m0.068582 519.715491c-26.061215 0-47.184515 22.734981-47.184515 50.785078V845.214922C466.57576 873.265019 487.69906 896 513.760275 896s47.184515-22.734981 47.184515-50.785078v-402.725783c0-28.038667-21.123301-50.773648-47.184515-50.773648z"  horiz-adv-x="1027" />

    
    <glyph glyph-name="shuju" unicode="&#58924;" d="M32.013577-127.98856699999999h137.292513a32.013577 32.013577 0 0 1 32.013577 32.013578V138.05569300000002a32.013577 32.013577 0 0 1-32.013577 32.013577H32.013577a32.013577 32.013577 0 0 1-32.013577-32.013577v-234.042116a32.013577 32.013577 0 0 1 32.013577-32.002144z m32.013577 234.076417h73.173891v-170.049262H64.027154zM443.811081-127.98856699999999a32.013577 32.013577 0 0 1 32.013577 32.013578V564.4308080000001a32.013577 32.013577 0 0 1-32.013577 32.013577H306.541435a32.013577 32.013577 0 0 1-32.013577-32.013577v-660.417231a32.013577 32.013577 0 0 1 32.013577-32.013577z m-105.187468 660.474398h73.17389v-596.481543h-73.17389zM718.327505-127.98856699999999a32.013577 32.013577 0 0 1 32.013577 32.013578v441.673031a32.013577 32.013577 0 0 1-32.013577 32.013577h-137.201045a32.013577 32.013577 0 0 1-32.013577-32.013577v-441.684465a32.013577 32.013577 0 0 1 32.013577-32.013577z m-105.187468 441.695898h73.173891v-377.703043h-73.173891zM823.57214 863.9864230000001v-959.972846a32.013577 32.013577 0 0 1 32.013577-32.013577H992.87823a32.013577 32.013577 0 0 1 32.013577 32.013577V863.9864230000001a32.013577 32.013577 0 0 1-32.013577 32.013577H855.597151a32.013577 32.013577 0 0 1-32.025011-32.013577z m64.027154-32.013577h73.173891v-895.968558h-73.173891z"  horiz-adv-x="1024" />

    
    <glyph glyph-name="wode" unicode="&#58926;" d="M78.99203-127.99993099999995a39.470294 39.470294 0 0 0-21.168872 72.828689c6.774496 4.238344 168.094327 105.216036 296.170003 111.56784h0.63975v22.002832C206.43938 139.80401099999995 108.843224 294.55498 108.843224 472.805339 108.843224 706.108475 288.373084 896 509.178245 896S909.501842 706.359805 909.501842 472.805339c0-178.044725-93.357812-328.774408-240.066208-391.846909v-24.984524c128.932484-11.641166 289.029935-106.70117 295.964369-110.722456a39.356052 39.356052 0 0 0-40.429919-67.527903c-1.485134 0.845384-155.36787 92.089736-263.565598 100.132307H630.068157a39.298932 39.298932 0 0 0-39.3789 39.378901v91.015869a39.367477 39.367477 0 0 0 26.675292 37.254017c129.777868 44.668263 213.390916 173.178055 213.390916 327.711966 0.217058 189.468833-143.943762 344.014168-321.360162 344.014168S187.818084 662.708288 187.818084 472.805339c0-154.750969 87.851391-287.064989 218.474644-329.414158A39.333204 39.333204 0 0 0 433.573498 105.93153099999995v-88.913834a39.298932 39.298932 0 0 0-39.378901-39.378901H356.118045c-105.638728-5.289362-254.472008-98.44154-255.900022-99.503981a40.829762 40.829762 0 0 0-21.225993-6.134746z"  horiz-adv-x="1024" />

    
    <glyph glyph-name="xiugaimingcheng" unicode="&#58928;" d="M128.095786 124.097082l45.073705 180.969608L308.504976 169.28515700000003z m214.388884 79.156333L207.160622 338.920577 612.904024 746.173679 748.102264 610.369272zM782.081959 644.383278L646.75791 780.119062l101.458725 101.790402a47.63562 47.63562 0 0 0 67.604839 0l67.604838-67.833581a48.127417 48.127417 0 0 0 0-67.833581z m194.808528-772.348967H48.03592a48.276099 48.276099 0 0 0 0 96.540762h928.854567a48.276099 48.276099 0 0 0 0-96.540762z"  horiz-adv-x="1024" />

    
    <glyph glyph-name="niantie" unicode="&#58930;" d="M973.79529-128H50.20471A50.307612 50.307612 0 0 0 0-77.79529000000002V845.79529A50.307612 50.307612 0 0 0 50.20471 896H973.79529a50.307612 50.307612 0 0 0 50.20471-50.20471V-77.79529000000002a50.307612 50.307612 0 0 0-50.20471-50.20471zM68.692757-59.30724299999997h886.614486V827.307243H68.692757zM773.822534 70.16625499999998h-69.676042v65.171224h70.544992L773.822534 104.79847299999994z m-139.294916 0h-69.618874v65.171224H634.561919z m-139.237749 0H425.670995v65.171224h69.618874z m-139.237748 0h-69.607441v65.171224h69.618874z m-163.762709 42.304128l-0.251538 2.012305v71.596878h65.171224v-69.618874h-32.585612z m627.770391 52.17128h-65.171224V234.22623699999997h65.171224zM257.254832 255.72130700000002h-65.171224v69.596007h65.171224z m562.850705 48.146671h-65.171224V373.486853h65.171224zM257.254832 394.936189h-65.171224v69.60744h65.171224z m562.850705 48.146671h-65.171224v69.60744h65.171224zM257.254832 534.162504h-65.171224v69.618874h65.171224z m562.850705 48.146671h-65.171224v69.618874h32.597046l32.551311 1.211956v-1.25769zM725.652996 633.0283939999999h-69.618874v65.171224h69.618874z m-139.237748 0H516.796373v65.171224h69.618875z m-139.237749 0h-69.618874v65.171224h69.618874z m-139.237748 0h-69.584574v65.171224h69.618874z"  horiz-adv-x="1024" />

    
    <glyph glyph-name="zhengxu" unicode="&#58932;" d="M609.409758-52.16889600000002c-22.864798 0-41.45388-16.954248-41.453879-37.886971S586.54496-127.94283800000005 609.409758-127.94283800000005s41.476744 16.96568 41.476745 37.886971S632.274557-52.16889600000002 609.409758-52.16889600000002zM360.640751 858.033002c0 20.909858-18.531919 37.875539-41.419582 37.886971s-41.465312-16.931383-41.476745-37.841241v-862.060065L68.097087 166.23565900000006c-17.525868 13.410204-43.6489 11.306643-58.305236-4.710148l-0.068595-0.068595c-14.679201-16.073953-12.335559-40.013397 5.236039-53.400736l269.564542-218.884716c12.575639-17.503003 38.26424-22.39607 57.424941-10.940806a38.59578 38.59578 0 0 1 16.496952 19.435078 34.983142 34.983142 0 0 1 2.28648 19.640862V858.033002z m331.665334-644.730155c0-20.932723 18.543352-37.886971 41.431015-37.886971h248.73471c22.864798 0 41.45388 16.954248 41.45388 37.886971S1005.359474 251.21268299999997 982.47181 251.21268299999997H733.7371c-22.864798 0-41.431015-16.954248-41.431015-37.932701zM609.409758 99.539042c-22.864798 0-41.45388-16.954248-41.453879-37.886971S586.54496 23.707938000000013 609.409758 23.707938000000013s41.476744 16.96568 41.476745 37.886971S632.274557 99.539042 609.409758 99.539042z m309.48648 506.958312c14.679201 16.073953 12.335559 40.013397-5.236039 53.400737L644.072793 878.782807C631.611478 896.297242 605.980039 901.270336 586.78504 889.883666a38.515753 38.515753 0 0 1-16.657005-19.606564 34.914547 34.914547 0 0 1-2.217886-19.549403v-504.728994a368.47766 368.47766 0 0 0 82.930624 52.817684V771.935603l209.647338-170.228424c17.548733-13.410204 43.671765-11.29521 58.305236 4.744445v0.057162z m63.575572-506.969744H733.7371c-22.864798 0-41.431015-16.954248-41.431015-37.886971S710.849437 23.707938000000013 733.7371 23.707938000000013h248.73471c22.864798 0 41.45388 16.954248 41.45388 37.932701s-18.531919 37.875539-41.431015 37.886971z m0-151.707938H733.7371c-22.864798 0-41.431015-16.954248-41.431015-37.886971s18.543352-37.932701 41.431015-37.932701h248.73471c22.864798 0 41.45388 16.954248 41.45388 37.932701s-18.531919 37.875539-41.431015 37.886971zM609.409758 251.21268299999997c-22.864798 0-41.45388-16.954248-41.453879-37.932701S586.510663 175.41587600000003 609.409758 175.41587600000003s41.45388 16.954248 41.45388 37.864106S632.343151 251.21268299999997 609.409758 251.21268299999997z"  horiz-adv-x="1024" />

    
    <glyph glyph-name="bofangliang" unicode="&#58934;" d="M400.2 636.3c-26.6 0-53.1-19-53.1-61.6v-202.5c0-42.7 26.6-61.6 53.1-61.6 11.9 0 23.7 3.3 35.6 10.4l175.4 101.5c21.3 12.3 33.7 30.8 33.7 51.2 0 19.9-12.3 38.9-33.7 51.2L435.8 626.3c-11.9 6.7-23.7 10-35.6 10z m-8-61.6c0 6.2 0.9 17.1 8.5 17.1 1.9 0 6.6-0.5 13.3-4.3L589.4 486c8.1-4.7 11.9-9.5 11.9-12.8 0-2.8-3.8-8.1-11.9-12.8L414 358.9c-6.6-3.8-11.4-4.3-13.3-4.3-7.1 0-8.5 10.9-8.5 17.1v203z m338.5 146v-68.8c0-2.8 1.9-4.7 4.7-4.7h68.8c2.8 0 4.7 1.9 4.7 4.7v68.8c0 2.8-1.9 4.7-4.7 4.7h-68.8c-2.8 0-4.7-1.9-4.7-4.7z m0-139.9V512c0-2.8 1.9-4.7 4.7-4.7h68.8c2.8 0 4.7 1.9 4.7 4.7v68.8c0 2.8-1.9 4.7-4.7 4.7h-68.8c-2.8 0.1-4.7-2.3-4.7-4.7z m0-140.3v-68.8c0-2.8 1.9-4.7 4.7-4.7h68.8c2.8 0 4.7 1.9 4.7 4.7v68.8c0 2.8-1.9 4.7-4.7 4.7h-68.8c-2.8 0-4.7-1.9-4.7-4.7zM214.8 651.9v68.8c0 2.8-1.9 4.7-4.7 4.7h-68.8c-2.8 0-4.7-1.9-4.7-4.7v-68.8c0-2.8 1.9-4.7 4.7-4.7h68.8c2.8 0 4.7 1.9 4.7 4.7z m0-560.4v68.8c0 2.8-1.9 4.7-4.7 4.7h-68.8c-2.8 0-4.7-1.9-4.7-4.7v-68.8c0-2.8 1.9-4.7 4.7-4.7h68.8c2.8-0.1 4.7 1.8 4.7 4.7z m0 0M214.8 231.4v68.8c0 2.8-1.9 4.7-4.7 4.7h-68.8c-2.8 0-4.7-1.9-4.7-4.7v-68.8c0-2.8 1.9-4.7 4.7-4.7h68.8c2.8-0.1 4.7 2.3 4.7 4.7z m0 280.7v68.8c0 2.8-1.9 4.7-4.7 4.7h-68.8c-2.8 0-4.7-1.9-4.7-4.7v-69.2c0-2.8 1.9-4.7 4.7-4.7h68.8c2.8-0.2 4.7 2.2 4.7 5.1z m0-140.4v68.8c0 2.8-1.9 4.7-4.7 4.7h-68.8c-2.8 0-4.7-1.9-4.7-4.7v-68.8c0-2.8 1.9-4.7 4.7-4.7h68.8c2.8 0 4.7 1.9 4.7 4.7z m0 0M539.7 223.9c-0.8 29.8 17.8 54.6 44.4 60.7 25.7 6 53.1-9.5 62.5-36.3 2.4-6.7 5.7-9.2 11.8-10.3 13.2-2.3 26.3-5.1 39.3-8.2 4.9-1.1 8-0.2 11.6 3.8 16 17.7 35.5 23.3 57.6 15.9 5.8-2 9.7-1.3 14.3 2.9 20.9 18.8 42 37.2 63.2 55.5 4.1 3.6 5.7 7.1 5.1 12.8-3 32.2 19.7 60.6 50.5 63.8 28.7 3 56.9-21.1 59.7-51.1 3.2-34.1-17.7-63.5-48.3-66.4-8.3-0.8-16.9 1.9-25.3 2.4-3.6 0.2-8.3 0.1-10.9-2.1-21.8-18.5-43.4-37.4-64.6-56.7-3-2.7-5.3-8.3-5.2-12.5 0.6-31.3-16.4-55.9-44.1-62.7-25.5-6.2-51.5 8.7-63.2 35.6-1.3 3.1-4.8 6.3-7.9 7-15 3.7-30.1 7-45.3 9.6-3.3 0.5-8-1.2-10.6-3.6-16.5-15.3-34.9-20.4-56.2-14.1-3.3 1-8.3 0-11-2.2-22.3-18.3-44.3-37.2-66.5-55.6-4.2-3.5-5.6-7.2-5.3-12.8 2.4-47.6-40.3-77.8-80.7-57.5-2.8 1.4-7.6 1.1-10.3-0.5-19.4-11.6-38.7-23.5-57.6-35.8-2.7-1.8-5.1-6.6-5.3-10.1-1.8-30.7-21.9-55.4-48.1-58.3-29.9-3.3-54.7 14-61.8 44.4-5.3 23.1 0.7 43.4 17.7 59 17.7 16.1 37.9 18.6 59 9 5.1-2.3 8.5-2 13 0.8 18.9 12 37.8 23.8 56.9 35.3 4.7 2.8 6.5 6 6.7 11.8 1.7 39.5 37 65.4 72.4 53.3 5.5-1.9 9.2-1.3 13.6 2.6 19.3 16.7 38.8 33.3 58.6 49.4 7.6 5.9 14 11.5 10.3 21.2z m0 0M141.6-4.3h51v51.2h-51c-14.7 0-26.6 11.9-26.6 26.6V754.4c0 14.7 11.9 26.6 26.6 26.6h680.9c14.7 0 26.6-11.9 26.6-26.6v-331.1h51.2V754.4c0 42.7-35.1 77.8-77.8 77.8H141.6c-42.2 0-76.9-34.4-77.6-76.4v-683.6c0.8-42.1 35.4-76.5 77.6-76.5z"  horiz-adv-x="1024" />

    
    <glyph glyph-name="dianzanshu" unicode="&#58935;" d="M548.5 217.1c-0.8 29.1 17.4 53.4 43.3 59.3 25.1 5.8 51.9-9.3 61.1-35.4 2.3-6.5 5.6-9 11.6-10.1 12.9-2.3 25.7-5 38.4-8 4.8-1.1 7.8-0.2 11.3 3.7 15.7 17.3 34.7 22.7 56.3 15.5 5.7-1.9 9.4-1.2 14 2.8 20.4 18.3 41 36.4 61.7 54.2 4 3.5 5.5 6.9 5 12.5-2.9 31.5 19.2 59.2 49.4 62.3 28.1 2.9 55.6-20.6 58.3-50 3.2-33.3-17.3-62-47.2-64.9-8.1-0.8-16.5 1.9-24.8 2.3-3.6 0.2-8.1 0.1-10.6-2.1-21.3-18.1-42.4-36.5-63.1-55.4-2.9-2.7-5.2-8.1-5.1-12.3 0.6-30.5-16-54.6-43.1-61.2-24.9-6.1-50.3 8.5-61.8 34.8-1.3 3-4.7 6.1-7.7 6.9-14.6 3.6-29.4 6.8-44.3 9.4-3.2 0.5-7.8-1.1-10.3-3.5-16.1-15-34.1-19.9-54.9-13.8-3.2 0.9-8.1 0-10.7-2.1-21.8-17.9-43.2-36.4-65-54.4-4.1-3.4-5.4-7-5.2-12.5 2.3-46.5-39.4-76-78.8-56.1-2.7 1.4-7.4 1.1-10.1-0.5-19-11.3-37.8-22.9-56.3-35-2.7-1.8-5-6.4-5.2-9.9-1.7-30-21.4-54.1-47-56.9-29.2-3.2-53.4 13.7-60.3 43.4-5.2 22.6 0.7 42.4 17.3 57.6 17.2 15.7 37 18.2 57.7 8.8 5-2.3 8.3-1.9 12.7 0.8 18.4 11.7 36.9 23.2 55.6 34.5 4.6 2.7 6.3 5.8 6.6 11.5 1.7 38.6 36.1 63.9 70.8 52.1 5.4-1.8 8.9-1.2 13.3 2.5 18.9 16.4 38 32.5 57.3 48.3 7.3 6 13.5 11.4 9.8 20.9z m0 0M271.8 141.8V465.5c112 42.4 154.5 182.8 161 265.3-0.8 17.2 12.5 31.7 29.7 32.6 8.6-0.6 16.6-4.7 22.2-11.3 5.6-6.6 8.3-15.2 7.5-23.8 3.2-46.2-2.1-150.7-39.2-179.3-11.7-9-16.4-24.5-11.6-38.5 4.8-14 17.9-23.4 32.7-23.4h238.5c11.6-0.5 22.6-5.2 30.8-13.3 7.7-14.8 9.1-32.2 3.7-48.1-7-30.5-24.5-85.1-33.9-119.4H791c7.8 29.1 17.3 77.8 23.3 104 11.4 36.2 5.1 75.6-16.9 106.5-21.4 24.6-52.2 38.9-84.8 39.3H538.8c18.9 56.1 26.5 115.4 22.4 174.5 0.9 35.5-17.3 68.8-47.8 87.2-30.4 18.5-68.4 19-99.4 1.5s-50.1-50.2-50.2-85.8c-0.2-2.1-18.6-211.8-162.3-211.8H64.6v-448.9h278.6l19.5 69.1h-90.9z m-68.9 0h-69.1V452.6h69.1v-310.8z"  horiz-adv-x="1024" />

    
    <glyph glyph-name="pinglunliang" unicode="&#58936;" d="M545.2 220c-0.8 29.4 17.6 53.9 43.8 60 25.4 5.9 52.4-9.4 61.7-35.8 2.3-6.6 5.6-9.1 11.7-10.2 13-2.3 25.9-5 38.8-8.1 4.8-1.1 7.9-0.2 11.5 3.8 15.8 17.5 35.1 23 56.9 15.7 5.8-1.9 9.5-1.3 14.1 2.9 20.6 18.5 41.4 36.7 62.4 54.8 4.1 3.5 5.6 7 5.1 12.7-3 31.8 19.4 59.8 49.9 63 28.3 2.9 56.1-20.8 58.9-50.5 3.2-33.7-17.5-62.7-47.7-65.5-8.2-0.8-16.6 1.9-25 2.3-3.6 0.2-8.2 0.1-10.7-2.1-21.5-18.3-42.8-36.9-63.7-56-2.9-2.7-5.2-8.2-5.1-12.4 0.6-30.9-16.2-55.2-43.5-61.8-25.2-6.1-50.8 8.6-62.4 35.2-1.3 3-4.8 6.2-7.8 7-14.8 3.7-29.7 6.9-44.7 9.5-3.3 0.5-7.9-1.1-10.4-3.5-16.3-15.1-34.4-20.1-55.5-14-3.2 0.9-8.2 0-10.8-2.2-22.1-18.1-43.7-36.7-65.6-54.9-4.2-3.5-5.5-7.1-5.2-12.7 2.3-47-39.8-76.7-79.6-56.7-2.8 1.4-7.5 1.1-10.2-0.5-19.2-11.4-38.2-23.2-56.9-35.4-2.7-1.8-5-6.5-5.2-10-1.7-30.3-21.6-54.7-47.4-57.5-29.5-3.2-54 13.8-61 43.8-5.3 22.8 0.7 42.9 17.5 58.2 17.4 15.9 37.4 18.3 58.3 8.8 5-2.3 8.4-2 12.8 0.8 18.6 11.8 37.3 23.5 56.2 34.8 4.6 2.8 6.4 5.9 6.7 11.7 1.7 39 36.5 64.6 71.5 52.6 5.4-1.8 9-1.2 13.4 2.6 19.1 16.5 38.3 32.8 57.9 48.8 6.7 5.7 13 11.2 9.3 20.8z m0 0M83.7-63.6c-1.8 0-3.6 0.2-5.4 0.8-8.3 2.4-14.1 10-14.1 18.7V773.6c0 32.2 26.2 58.4 58.4 58.4h642.5c32.2 0 58.4-26.2 58.4-58.4v-408.9c0-10.8-8.7-19.5-19.5-19.5s-19.5 8.7-19.5 19.5V773.6c0 10.7-8.7 19.5-19.5 19.5H122.6c-10.7 0-19.5-8.7-19.5-19.5v-750.1l61.8 117.9c3.6 5.7 9.8 9.1 16.5 9.1h135.9c10.8 0 19.5-8.7 19.5-19.5s-8.7-19.5-19.5-19.5H192.2l-92-166.1c-3.7-5.6-9.9-9-16.5-9zM685.7 617.9H202c-0.8 0-1.5 0.7-1.5 1.5v55.4c0 0.8 0.7 1.5 1.5 1.5h483.7c0.8 0 1.5-0.7 1.5-1.5v-55.4c0-0.8-0.6-1.5-1.5-1.5zM685.7 462.1H202c-0.8 0-1.5 0.7-1.5 1.5V519c0 0.8 0.7 1.5 1.5 1.5h483.7c0.8 0 1.5-0.7 1.5-1.5v-55.4c0-0.8-0.6-1.5-1.5-1.5zM491 306.4H202c-0.8 0-1.5 0.7-1.5 1.5v55.4c0 0.8 0.7 1.5 1.5 1.5h289c0.8 0 1.5-0.7 1.5-1.5v-55.4c0-0.9-0.6-1.5-1.5-1.5z"  horiz-adv-x="1024" />

    
    <glyph glyph-name="fanhui" unicode="&#58942;" d="M230.58232853 591.91964481a31.89418667 31.89418667 0 0 0 45.14702293-45.07420481L160.31317332 431.57489813h550.28394667a31.89418667 31.89418667 0 1 0 0-63.71555625H158.34709333l117.30943999-117.23662187a31.82136853 31.82136853 0 1 0-45.07420479-45.00138668L42.34837333 398.73408 230.58232853 591.91964481z m225.88074666-600.0184896c0-21.33560853 17.25781333-38.59342187 38.59342293-38.59342187h463.84924375a38.59342187 38.59342187 0 0 1 38.59342292 38.59342187l-1.0194496 814.68529813a38.59342187 38.59342187 0 0 1-38.59342187 38.59342187H495.12931519a38.59342187 38.59342187 0 0 1-38.59342187-38.59342187v-247.87171521h-64.15246186V845.47114667c0 35.17098667 28.54456853 63.7155552 63.7155552 63.7155552h541.90990186c35.17098667 0 63.7155552-28.54456853 63.71555627-63.7155552V-46.69226665999997a63.7155552 63.7155552 0 0 0-63.71555627-63.7155552H456.02616852a63.7155552 63.7155552 0 0 0-63.7155552 63.7155552V241.08359147l64.15246187 0.07281707v-249.25525333z"  horiz-adv-x="1150" />

    
    <glyph glyph-name="suoxiao" unicode="&#58943;" d="M751.987281 236.79112299999997c51.203937 70.453709 83.203557 153.600449 83.203557 243.178931a415.99506 415.99506 0 1 1-415.99506-415.972334c89.601209 0 172.793403 31.99962 243.17893 76.794543l249.610673-249.587946c25.601969-25.601969 63.99924-25.601969 89.601209 0s25.601969 63.99924 0 89.601209z m-332.791503-108.794163c-192.043174 0-351.99582 159.9981-351.995821 351.995821S227.198058 831.9772370000001 419.195778 831.9772370000001s351.99582-159.9981 351.99582-351.99582S611.148044 127.99695999999994 419.195778 127.99695999999994M601.250434 472.742867H229.016218a23.863353 23.863353 0 0 0 0 47.658525h372.234216a23.863353 23.863353 0 0 0 0-47.658525z"  horiz-adv-x="1024" />

    
    <glyph glyph-name="cuowujinggao" unicode="&#58944;" d="M512-127.977169A512.125571 512.125571 0 0 0 312.695458 855.748679a512.125571 512.125571 0 0 0 398.609084-943.497358A508.82647 508.82647 0 0 0 512-127.977169z m0 959.87871A448.004281 448.004281 0 0 1 337.672739-28.66165699999999 448.004281 448.004281 0 0 1 686.327261 796.684489a445.059062 445.059062 0 0 1-174.327261 35.194221zM556.223941 226.78468699999996H479.454193c-3.162115 0-5.707788 4.006867-5.707788 8.904149l-23.755814 493.26704c0 7.53428 3.984036 13.698691 8.847071 13.698691h118.048472c4.863035 0 8.847071-6.164411 8.847072-13.698691l-23.755814-493.26704c0-4.897282-2.614167-8.904149-5.753451-8.904149zM475.127689 165.65427699999998l86.187599 0 0-98.436512-86.187599 0 0 98.436512Z"  horiz-adv-x="1024" />

    
    <glyph glyph-name="chenggong" unicode="&#58945;" d="M512-127.977169A512.125571 512.125571 0 0 0 312.695458 855.748679a512.125571 512.125571 0 0 0 398.609084-943.497358A508.82647 508.82647 0 0 0 512-127.977169z m0 959.87871A448.004281 448.004281 0 0 1 337.672739-28.66165699999999 448.004281 448.004281 0 0 1 686.327261 796.684489a445.059062 445.059062 0 0 1-174.327261 35.194221zM446.737152 175.471673a34.143988 34.143988 0 0 0-23.755814 9.589084L252.044503 349.75327200000004a34.246728 34.246728 0 1 0 47.523043 49.326704l146.907048-141.553143 284.978439 280.743261a34.246728 34.246728 0 0 0 48.070991-48.790172L470.778355 185.32331499999998a34.155403 34.155403 0 0 0-24.041203-9.851642z"  horiz-adv-x="1024" />

    
    <glyph glyph-name="dengdai" unicode="&#58946;" d="M512-127.977169A512.125571 512.125571 0 0 0 312.695458 855.748679a512.125571 512.125571 0 0 0 398.609084-943.497358A508.82647 508.82647 0 0 0 512-127.977169z m0 959.87871A448.004281 448.004281 0 0 1 337.672739-28.66165699999999 448.004281 448.004281 0 0 1 686.327261 796.684489a445.059062 445.059062 0 0 1-174.327261 35.194221zM749.375488 351.55693299999996H512a34.246728 34.246728 0 0 0-34.246728 34.246728V750.885198a34.246728 34.246728 0 0 0 68.493456 0v-330.834809h203.12876a34.246728 34.246728 0 0 0 0-68.493456z"  horiz-adv-x="1024" />

    
    <glyph glyph-name="huiyuan" unicode="&#58948;" d="M147.855934 175.59714199999996L50.098797 19.236038000000008c-4.882711-9.776857 0-22.000787 12.223931-22.000787l131.970418-7.329785c4.882711 0 7.329784-2.447073 9.776858-4.882711l80.650495-107.488253c7.329784-7.329784 19.553714-7.329784 24.436425 0L402.019914 31.517143000000033c4.882711 7.329784 2.447073 14.659568-4.882711 19.553714l-229.727555 129.466171a19.004838 19.004838 0 0 1-19.553714-4.939886zM876.111723 178.10139000000004l97.791441-156.418279c4.882711-9.776857 0-22.000787-12.22393-22.000787l-131.970419-7.329785c-4.882711 0-7.329784-2.447073-9.776857-4.882711l-80.650495-107.488253c-7.329784-7.329784-19.553714-7.329784-24.436425 0l-92.874426 153.925466c-4.882711 7.329784-2.447073 14.659568 4.882711 19.553714l229.727556 129.523346c7.329784 4.882711 14.659568 2.447073 19.553714-4.882711zM856.592314 710.865776L546.214263 886.849205c-22.000787 12.20106-51.319924 12.20106-73.320711 0L164.962575 713.312849C142.961788 701.088919 128.267915 676.6524939999999 128.267915 652.2160690000001v-349.485479c0-24.436425 14.659568-48.872851 36.660355-61.096781l310.412355-175.960559c22.000787-12.22393 51.319924-12.22393 73.320711 0l307.930978 171.077848c21.989352 12.22393 36.67179 36.660355 36.67179 61.096781V647.333358c0 26.826324-14.682438 51.319924-36.67179 63.532418zM709.950892 561.788716L529.107622 300.23777700000005c-4.882711-7.329784-14.659568-12.22393-24.436425-12.22393s-19.553714 4.882711-24.436426 12.22393L306.652676 561.788716c-9.776857 12.22393-4.882711 31.766209 7.329784 39.107429s31.766209 4.882711 39.107429-7.329784L502.189819 368.72151699999995l156.441149 227.280482c9.776857 12.22393 26.883498 17.152381 39.107428 7.329784 19.553714-12.22393 22.000787-29.330571 12.223931-41.543067z"  horiz-adv-x="1024" />

    
    <glyph glyph-name="quanbuchexiao" unicode="&#58949;" d="M422.558028 425.348801H48.936406a48.514788 48.514788 0 0 0-48.514788 48.514788V847.485212A48.514788 48.514788 0 0 0 48.936406 896h373.621622a48.514788 48.514788 0 0 0 48.514788-48.514788v-373.621623a48.514788 48.514788 0 0 0-48.514788-48.514788zM69.728458 494.655641h332.037519V826.69316H69.728458zM422.558028-127.99700800000005H48.936406a48.514788 48.514788 0 0 0-48.514788 48.514788V294.185607a48.514788 48.514788 0 0 0 48.514788 48.514788h373.621622a48.514788 48.514788 0 0 0 48.514788-48.514788v-373.667827a48.514788 48.514788 0 0 0-48.514788-48.514788zM69.728458-58.69016799999997h332.037519V273.393555H69.728458zM975.0144 425.348801H601.381227a48.514788 48.514788 0 0 0-48.514788 48.514788V847.485212a48.514788 48.514788 0 0 0 48.514788 48.514788h373.633173a48.514788 48.514788 0 0 0 48.514788-48.514788v-373.621623a48.514788 48.514788 0 0 0-48.514788-48.514788z m-352.82957 69.30684h332.037518V826.69316H622.173279zM617.333351-127.99700800000005a34.65342 34.65342 0 0 0-0.900989 69.30684l190.90569 5.07095h0.462046c80.742468 0 146.42225 72.206176 146.42225 160.953585S888.531015 268.287951 807.846303 268.287951H662.590717a34.65342 34.65342 0 1 0 0 69.30684H807.846303c58.136888 0 112.635166-24.257394 153.468445-68.405851 40.151763-43.374531 62.260645-100.853003 62.260645-161.854573s-22.108882-118.491594-62.260645-161.854574C920.539224-98.55315199999995 866.225764-122.81054600000004 808.273695-122.93760899999995l-190.004702-5.047848zM514.78233 302.941371l182.438705-105.334845V408.264665l-182.438705-105.323294z"  horiz-adv-x="1024" />

    
    <glyph glyph-name="fangda" unicode="&#58950;" d="M751.987281 236.79112299999997c51.203937 70.453709 83.203557 153.600449 83.203557 243.178931a415.99506 415.99506 0 1 1-415.99506-415.972334c89.601209 0 172.793403 31.99962 243.17893 76.794543l249.610673-249.587946c25.601969-25.601969 63.99924-25.601969 89.601209 0s25.601969 63.99924 0 89.601209z m-332.791503-108.794163c-192.043174 0-351.99582 159.9981-351.995821 351.995821S227.198058 831.9772370000001 419.195778 831.9772370000001s351.99582-159.9981 351.99582-351.99582S611.148044 127.99695999999994 419.195778 127.99695999999994M601.250434 472.742867H229.016218a23.863353 23.863353 0 0 0 0 47.658525h372.234216a23.863353 23.863353 0 0 0 0-47.658525zM415.127644 281.07468800000004a23.863353 23.863353 0 0 0-23.863353 23.863353V662.070164a23.863353 23.863353 0 1 0 47.658525 0v-357.166213a23.863353 23.863353 0 0 0-23.795172-23.829263z"  horiz-adv-x="1024" />

    
    <glyph glyph-name="tongzhi" unicode="&#58951;" d="M640.031528-127.99997699999994a31.79426 31.79426 0 0 0-21.37969 8.258249l-310.831329 279.736726H128.008599C76.555118 159.98352899999998 0.017205 194.048807 0.017205 287.986393V479.97922c0 51.453481 34.111158 127.991395 127.991394 127.991395h179.708682l310.831329 279.805545a32.023656 32.023656 0 0 0 53.437755-23.799816v-960.021484A31.920428 31.920428 0 0 0 640.031528-127.99997699999994zM128.008599 543.9806530000001c-60.927528 0-64.001432-53.311587-64.001432-64.001433V287.986393c0-60.85871 53.311587-63.989962 64.001432-63.989962H320.024366a31.633683 31.633683 0 0 0 21.37969-8.25825l266.592346-239.867733V792.0951660000001l-266.557937-239.856264a32.000716 32.000716 0 0 0-21.437038-8.258249zM799.989229 575.992839a31.966307 31.966307 0 0 0-22.652837 54.584734l128.002865 127.979925a31.989246 31.989246 0 1 0 45.236855-45.236855l-127.991395-128.002865a31.759851 31.759851 0 0 0-22.595488-9.324939z m191.992827-224.016483H799.989229a32.000716 32.000716 0 0 0 0 64.001432h191.992827a32.000716 32.000716 0 1 0 0-64.001432z m-63.989962-351.984938a32.287461 32.287461 0 0 0-22.652837 9.393758l-128.002865 127.945516A31.989246 31.989246 0 0 0 822.584717 182.57901600000002l127.991395-128.002864a31.954837 31.954837 0 0 0-22.584018-54.584734z"  horiz-adv-x="1024" />

    
    <glyph glyph-name="xitongtouxiangnan" unicode="&#58952;" d="M1019.476728 388.867211C1019.27369 669.138688 791.916186 896.191634 511.63343 895.999876S4.309007 668.439335 4.500765 388.167858 232.061307-119.19040399999994 512.332783-118.98736599999995 1019.691046 108.58445500000005 1019.476728 388.867211zM437.783977 248.37615600000004h148.623857v-162.960599H437.783977zM437.705018 267.484294v-44.487895s26.823583-44.465334 73.398257-44.431494 75.2256 45.672283 75.2256 45.672283v43.348625zM511.712389 718.03702c72.191309 0 186.309976-40.889609 186.445335-233.110248C698.214124 373.94391399999995 662.118469 301.21117100000004 646.32662 281.087843c-14.494661-18.510303-96.025721-58.012485-134.287114-58.035044zM734.0729 439.16425c3.15837 30.715146-11.49421 57.956085-32.711687 60.855017s-41.013687-19.649572-44.172057-50.375998 11.49421-57.956085 32.711687-60.843737S730.92581 408.415264 734.0729 439.16425zM511.723669 718.03702c-72.191309 0-186.242297-41.149046-186.118218-233.369686 0.078959-110.982857 36.309972-183.659202 52.090541-203.771249C392.213213 262.40834199999995 473.744273 223.03023900000005 512.095905 223.05279900000005zM289.735394 438.814573c-3.203489 30.703866 11.415251 57.967365 32.644008 60.911417s41.036247-19.593172 44.239736-50.308318-11.415251-57.967365-32.644007-60.911417-41.024967 19.604452-44.239737 50.308318zM766.637948 112.40833799999996c-20.87908 21.713792-162.204847 42.277035-162.204847 42.277035L512.095905 129.65529300000003l-92.348475 24.906002S278.466782 133.80629299999998 257.621542 112.04738199999997c-18.160626-18.938939-55.812906-200.263203-64.520982-240.047382l319.220943 0.214318 319.220944 0.214318c-8.809596 39.806739-46.721313 221.063323-64.904499 239.979702zM418.574321 733.174635l-6.632577 21.88299c-52.23718-22.920741-76.049032-91.604003-76.049032-91.604003l-10.42262 24.815763c-11.178373-40.088736-13.095955-102.477819-12.892916-145.059411a406.369389 406.369389 0 0 1 1.127989-46.315237l29.327719-34.49391-12.994435 83.865997s17.822229 65.423374 55.621147 90.363215c0 0 31.34682-27.838773 126.143032-29.767635v8.956234l-0.078959 122.398109V783.990548c-50.048881-15.961047-93.149348-50.815913-93.149348-50.815913zM604.850457 733.298714l6.598737 21.89427c52.27102-22.853061 76.173111-91.491204 76.173111-91.491204l10.38878 24.883442c11.279892-40.066176 13.242593-102.466539 13.095955-145.036852a406.369389 406.369389 0 0 0-1.06031-46.326516l-29.24876-34.539029 12.836517 83.820877s-17.912469 65.423374-55.745226 90.239136c0 0-31.31298-27.883893-126.097913-29.936833v8.956234l-0.078959 122.398108V783.934149c50.015041-15.836968 93.138068-50.635435 93.138068-50.635435zM437.783977 169.980907l-18.025267-15.419612 44.679652-89.912019 47.680103 65.006017-74.334488 40.325614zM586.407834 170.08242600000005l18.036547-15.397053-44.555573-89.968418-47.770343 64.938338 74.289369 40.427133zM463.005815 299.86886300000003l4.2074 17.371034a7.117612 7.117612 0 0 0 7.083772 7.095052h75.338399a7.151452 7.151452 0 0 0 7.128892-7.128892l4.252519-17.325914"  horiz-adv-x="1024" />

    
    <glyph glyph-name="shoujirenzheng" unicode="&#58953;" d="M508.512764 129.74998100000005H86.91362V809.08638h652.011235v-298.044097a383.939546 383.939546 0 0 0 86.91362 22.908847V809.08638C825.851202 857.05496 801.389644 896 753.446519 896H86.91362A86.964528 86.964528 0 0 1 0 809.08638v-850.17276a86.964528 86.964528 0 0 1 86.91362-86.91362h610.902582C600.491785-75.08056399999998 529.448905 18.78207299999997 508.512764 129.74998100000005z m-82.726391-222.7249c-47.96858 0-93.060827 45.092247-93.060827 93.060827s45.092247 93.060827 93.060827 93.060827 93.060827-45.092247 93.060827-93.060827-44.90134-93.086281-93.009918-93.086281zM869.263467 434.106739c-144.045738 0-260.753586-116.707848-260.753586-260.753586S725.268637-87.40043300000002 869.263467-87.40043300000002 1130.055234 29.281961000000024 1130.055234 173.35315300000002 1013.347386 434.106739 869.263467 434.106739z m-53.708519-426.664546l-131.738597 131.089513 61.357529 61.637525 70.521066-70.113798L987.244028 300.713615l61.357528-61.637526z"  horiz-adv-x="1130" />

    
    <glyph glyph-name="tianjia" unicode="&#58954;" d="M928.256456 479.743544H607.743544V800.256456c0 52.88691-42.856634 95.743544-95.743544 95.743544s-95.743544-42.856634-95.743544-95.743544v-320.512912H95.743544c-52.88691 0-95.743544-42.856634-95.743544-95.743544s42.856634-95.743544 95.743544-95.743544h320.512912v-320.512912c0-52.88691 42.856634-95.743544 95.743544-95.743544s95.743544 42.856634 95.743544 95.743544V288.25645599999996h320.512912c52.88691 0 95.743544 42.856634 95.743544 95.743544s-42.856634 95.743544-95.743544 95.743544z"  horiz-adv-x="1024" />

    
    <glyph glyph-name="shoujirenzheng1" unicode="&#58955;" d="M508.512764 129.74998100000005H86.91362V809.08638h652.011235v-298.044097a383.939546 383.939546 0 0 0 86.91362 22.908847V809.08638C825.851202 857.05496 801.389644 896 753.446519 896H86.91362A86.964528 86.964528 0 0 1 0 809.08638v-850.17276a86.964528 86.964528 0 0 1 86.91362-86.91362h610.902582C600.491785-75.08056399999998 529.448905 18.78207299999997 508.512764 129.74998100000005z m-82.726391-222.7249c-47.96858 0-93.060827 45.092247-93.060827 93.060827s45.092247 93.060827 93.060827 93.060827 93.060827-45.092247 93.060827-93.060827-44.90134-93.086281-93.009918-93.086281zM869.263467 434.106739c-144.045738 0-260.753586-116.707848-260.753586-260.753586S725.268637-87.40043300000002 869.263467-87.40043300000002 1130.055234 29.281961000000024 1130.055234 173.35315300000002 1013.347386 434.106739 869.263467 434.106739z m-53.708519-426.664546l-131.738597 131.089513 61.357529 61.637525 70.521066-70.113798L987.244028 300.713615l61.357528-61.637526z"  horiz-adv-x="1130" />

    
    <glyph glyph-name="weidianzan" unicode="&#58956;" d="M1153.944964 777.29706C1074.261605 876.77761 949.623518 917.16067 820.534071 885.306041c-94.24051-23.219257-214.748055-138.71401-320.297425-245.158999a42.000522 42.000522 0 0 1 59.605451-59.164326c70.419717 71.021252 201.487546 203.185212 280.716412 222.795259C937.058117 827.5854 1029.734635 798.056707 1088.444468 724.7629890000001c55.875933-69.751345 68.013576-163.082868 30.918907-237.940578-60.902094-122.739909-178.642577-251.174351-266.707326-337.260717C749.98068 49.15879099999995 657.544776-23.399718000000007 636.290533-36.740430999999944c-15.599812-9.811707-24.56937-10.480079-53.924286 3.903295-19.369432 9.490888-115.160566 89.561903-215.416427 188.481019C294.08386 227.480549 164.192366 363.801786 111.925644 469.311054c-34.086993 68.762153-36.987729 143.031695-8.154144 209.12036 25.692235 58.937079 74.978017 104.159156 131.843142 120.988773 67.505613 19.9576 128.020051 10.693959 166.89259-0.548065 41.773276-12.097541 68.454702-29.12767 69.644405-29.902982a41.987155 41.987155 0 0 1 46.879641 69.684507c-5.547491 3.756253-137.845126 91.446713-307.197327 41.305415C130.265782 855.897655 62.827006 794.648008 26.815101 712.023811-12.030703 622.796094-8.568534 523.3422800000001 36.707013 431.989139 67.10459 370.65928699999995 139.409117 262.12897499999997 311.247663 93.48524899999995c101.36536-99.480549 207.195447-188.574591 234.15759-201.768263 27.81766-13.634797 49.71354-19.663516 70.98115-19.663516 21.815675 0 42.909509 6.563417 64.48457 20.051172 33.52556 21.040363 383.471986 294.912642 513.670931 557.422589 51.558248 103.93191 35.624249 232.593598-40.59694 327.769829z"  horiz-adv-x="1224" />

    
    <glyph glyph-name="pinglun1" unicode="&#58957;" d="M548.663635-128h-1.121987a36.193124 36.193124 0 0 0-25.335187 11.437027L385.830769 29.174673999999982a36.193124 36.193124 0 0 0 52.841961 49.463937l111.583402-119.183958 128.027145 120.776455a36.193124 36.193124 0 0 0 24.840548 9.868659h215.795471A82.496195 82.496195 0 0 1 1001.343104 172.51151100000004V741.202008A82.508259 82.508259 0 0 1 918.919296 823.613752H154.797992A82.508259 82.508259 0 0 1 72.386248 741.202008v-568.690497A82.496195 82.496195 0 0 1 154.797992 90.09976700000004h63.941187a36.193124 36.193124 0 0 0 0-72.386249h-63.941187A154.966894 154.966894 0 0 0 0 172.51151100000004V741.202008A154.966894 154.966894 0 0 0 154.797992 896h764.121304A154.966894 154.966894 0 0 0 1073.729353 741.202008v-568.690497A154.966894 154.966894 0 0 0 918.919296 17.713518000000022h-201.475058L573.504182-118.13134100000002a36.193124 36.193124 0 0 0-24.840547-9.868659zM260.016962 431.541935m-53.223668-53.223668a75.269634 75.269634 0 1 1 106.447337 106.447337 75.269634 75.269634 0 1 1-106.447337-106.447337ZM521.816928 431.532198m-53.223669-53.223669a75.269634 75.269634 0 1 1 106.447338 106.447338 75.269634 75.269634 0 1 1-106.447338-106.447338ZM783.624243 431.543495m-53.223668-53.223669a75.269634 75.269634 0 1 1 106.447337 106.447338 75.269634 75.269634 0 1 1-106.447337-106.447338Z"  horiz-adv-x="1073" />

    
    <glyph glyph-name="dianzan1" unicode="&#58958;" d="M1153.944964 777.29706C1074.261605 876.77761 949.623518 917.16067 820.534071 885.306041c-60.768419-14.984909-132.444677-68.334395-204.000626-132.872434-21.748838 32.629941-66.703566 65.313352-93.318156 82.878178a42.094094 42.094094 0 0 1-4.197379 3.261658c-1.069396 0.721842-6.897603 4.598402-16.789515 9.998851C460.816041 871.216751 348.382434 920.382225 211.833951 879.959062 130.265782 855.897655 62.827006 794.648008 26.815101 712.023811-12.030703 622.796094-8.568534 523.3422800000001 36.707013 431.989139 67.10459 370.65928699999995 139.409117 262.12897499999997 311.247663 93.48524899999995c101.36536-99.480549 207.195447-188.574591 234.15759-201.768263 27.81766-13.634797 49.71354-19.663516 70.98115-19.663516 21.815675 0 42.909509 6.563417 64.48457 20.051172 33.52556 21.040363 383.471986 294.912642 513.670931 557.422589 51.558248 103.93191 35.624249 232.593598-40.59694 327.769829z"  horiz-adv-x="1224" />

    
    <glyph glyph-name="yanjing" unicode="&#58959;" d="M811.794772-127.98304700000006c-129.218523 0-251.723515 24.141587-364.090396 71.729674a901.918842 901.918842 0 0 0-248.265029 157.80189C72.051787 214.98346100000003 14.07129 328.50316999999995 11.680866 333.267065L0 356.45926399999996l11.867353 23.056572c2.729491 5.289449 68.508535 131.066439 198.89684 257.691098 77.002169 74.747372 160.802636 134.406252 249.07879 177.332163C571.158756 868.569461 689.54408 896 811.794772 896S1052.803762 868.603367 1165.018063 814.623864c89.005149-42.925912 173.856724-102.516978 252.282975-177.145677 132.710915-126.404265 200.863429-251.994768 203.694641-257.267263l12.731975-23.734707-12.443768-23.85338c-2.492144-4.763895-62.388371-118.097118-191.878148-231.413387a923.958213 923.958213 0 0 0-251.333587-157.581497C1064.671115-103.89232000000004 941.386268-127.98304700000006 811.794772-127.98304700000006zM115.706694 356.204963c22.124137-35.95808 72.526481-109.179649 154.428171-181.40097A799.639211 799.639211 0 0 1 489.748713 36.464562c99.092399-41.586596 207.441334-62.727438 322.113872-62.727438 116.011854 0 225.988311 21.446003 326.89472 63.74464a822.390623 822.390623 0 0 1 223.665701 140.306021c81.74911 71.543186 132.134501 142.662539 154.699426 178.332412a1099.662853 1099.662853 0 0 1-172.313969 209.848711c-70.525985 66.762338-146.426185 119.843314-225.58143 157.666264C1021.406136 770.545123 917.973676 794.27983 811.794772 794.27983a697.427394 697.427394 0 0 1-305.736925-70.475125c-78.290624-37.82295-153.021043-90.802205-222.089039-157.44587A1066.722471 1066.722471 0 0 1 115.706694 356.204963zM811.370938 59.28378699999996c-178.705386 0-324.080462 145.375077-324.080463 324.080462s145.375077 324.080462 324.080463 324.080462a50.860085 50.860085 0 1 0 0-101.72017c-122.606712 0-222.360292-99.75358-222.360292-222.360292s99.75358-222.360292 222.360292-222.360292 222.360292 99.75358 222.360292 222.360292a50.860085 50.860085 0 0 0 101.72017 0c0-178.688432-145.375077-324.080462-324.080462-324.080462z"  horiz-adv-x="1633" />

    
    <glyph glyph-name="youxiangrenzheng" unicode="&#58960;" d="M971.924655 428.657878c-153.721073 0-278.328939-124.5522-278.328939-278.328939s124.5522-278.328939 278.328939-278.328939 278.328939 124.5522 278.32894 278.328939-124.621783 278.328939-278.32894 278.328939zM914.60281-26.660433000000012l-140.556114 139.860292 65.476883 65.769128L914.755891 104.15416800000003l183.029111 182.166291 65.476883-65.769129zM133.166481 119.016933C134.405045 120.85390400000006 135.351363 122.24554899999998 136.38118 123.63719400000002q102.786877 132.832486 205.712919 265.804137c9.157022 11.870729 14.8071 24.646028 11.133158 40.872604-3.353864 14.862765-11.731565 24.576445-24.52078 28.097307-12.524802 3.451279-23.46313-1.113316-32.397488-12.06556q-33.594303-41.262265-67.202523-82.71936-84.932076-104.484684-169.836318-209.150282c-0.946318-1.168982-2.073551-2.157049-3.632193-3.980103V774.926911c1.725639-1.558642 3.075535-2.671958 4.300182-3.980103q183.6971-179.22992 367.3942-358.668588c8.767362-8.600364 16.811068-18.258378 25.982006-26.079421 20.944253-17.854801 53.912316-20.735506 78.266098 6.06757 56.194613 61.663776 116.898154 117.204316 175.514229 175.611645 68.371504 68.19059 137.299666 135.532277 205.963415 203.263624 1.168982 1.113316 2.184882 2.087467 3.910521 3.715691v-299.815933c0.807154 0 37.574407 6.805143 54.9143 2.296214v30.713598V812.932728c0 15.447256-2.017885 30.254356-8.934359 43.669811C949.018184 883.614362 928.227012 896 901.368269 896Q486.184991 895.902585 70.973879 896h-3.827022C28.876627 895.025849 0 861.320214 0 816.8015q0-341.760104 0.166997-683.645456a96.023484 96.023484 0 0 1 3.520861-25.620179C13.067544 74.30338900000004 37.9919 54.05495900000005 68.649833 54.05495900000005h574.749259a371.38822 371.38822 0 0 0-9.393602 64.934142z m731.170123 711.659265c-1.892637-2.087467-3.186866-3.520861-4.522845-4.884673Q681.418825 647.04868 502.91256 468.236253c-3.131201-3.131201-5.970156-6.652062-9.04569-9.838928-4.174934-4.300182-7.153054-4.300182-11.341905 0-35.473023 35.723519-70.779049 71.641869-106.363404 107.295806Q246.460276 695.770161 116.578076 825.721943c-1.280313 1.308146-2.574543 2.671958-4.745508 4.954255z"  horiz-adv-x="1250" />

    
    <glyph glyph-name="yincangmima" unicode="&#58961;" d="M1700.06405224 65.05240555a36.63793386 36.63793386 0 0 1-36.57772355-36.62288082v-138.302931a36.63793386 36.63793386 0 1 1 73.26081469 0v138.30293098a36.62288086 36.62288086 0 0 1-36.68309114 36.62288084zM1543.06584011 82.69400729999995a36.65298628 36.65298628 0 0 1-47.77682875-20.12527426l-44.7211587-109.88369555a36.62288086 36.62288086 0 1 1 67.85694516-27.62144963l44.70610626 109.79338038A36.60782842 36.60782842 0 0 1 1543.06584011 82.69400729999995zM1348.22549038 160.65122094000003a36.45730296 36.45730296 0 0 1-25.90545806-10.71742336l-83.40624048-83.34603077a36.63793386 36.63793386 0 0 1 51.81091495-51.81091495l83.39118806 83.39118805a36.60782842 36.60782842 0 0 1-25.89040447 62.48318103zM1925.11489231 62.58378548999997a36.62288086 36.62288086 0 0 1-67.84189273-27.63650211l44.70610681-109.88369552a36.65298628 36.65298628 0 0 1 67.88705001 27.65155451zM2098.06881888 149.90369213999998a36.62288086 36.62288086 0 1 1-51.81091495-51.76575764l83.40624048-83.4062405a36.63793386 36.63793386 0 0 1 51.79586309 51.82596793zM1737.4997713 132.81903554999997c-88.71979488 0-179.26094952 11.07868517-270.59988993 33.11563435C1225.45680231 224.38376416000006 1063.03966821 338.79828074 1056.25096343 343.64520572000004a45.15768322 45.15768322 0 0 0 52.38291253 73.57691807c1.50525583-1.09883672 157.2089479-110.33527252 382.57589132-164.178283C1622.12189104 221.74956618 1750.79118293 214.99096627999995 1873.72544888 232.90351409000004 2026.84010026 255.28667209000002 2171.94678847 316.40006976999996 2304.9963759 414.60297827a45.15768322 45.15768322 0 1 0 53.63227473-72.67376471C2212.90480702 234.40876993999996 2053.45302781 167.54529389000004 1884.75897618 143.26551284000004a1032.84652912 1032.84652912 0 0 0-147.25920489-10.44647729z"  horiz-adv-x="2397" />

    
    <glyph glyph-name="xianshimima" unicode="&#58962;" d="M621.99318 702.544965a33.384745 33.384745 0 0 1 33.371029 33.371028V861.9386039999999a33.384745 33.384745 0 1 1-66.755773 0v-126.022611a33.371029 33.371029 0 0 1 33.384744-33.371028zM616.16388 527.940281C472.817961 527.899133 356.616007 411.738327 356.616007 268.406124s116.201954-259.479293 259.534157-259.479293 259.493009 116.14709 259.520442 259.479293c-0.013716 143.332203-116.21567 259.493009-259.506726 259.534157z m0-478.990161a219.456004 219.456004 0 1 0 219.456005 219.456004 219.757756 219.757756 0 0 0-219.456005-219.456004zM765.064779 686.469812a33.398461 33.398461 0 0 1 43.534585 18.338293l40.750237 100.126802a33.371029 33.371029 0 1 1-61.831729 25.16886l-40.736521-100.044506a33.357313 33.357313 0 0 1 18.283428-43.589449zM942.590971 615.5169430000001a33.220153 33.220153 0 0 1 23.605236 9.765792l76.000358 75.945494a33.384745 33.384745 0 0 1-47.210473 47.210473L918.972018 672.410912A33.357313 33.357313 0 0 1 942.590971 615.5169430000001zM416.966408 704.794389a33.371029 33.371029 0 0 1 61.722002 25.196292l-40.736521 100.126802a33.398461 33.398461 0 0 1-61.859161-25.196292zM1173.609564 395.923779c-94.256354 126.447807-305.592486 279.24405-560.806104 280.176737-169.996107-0.123444-321.064134-69.169789-430.380656-151.575519-54.685693-41.298877-99.084386-86.026754-130.576323-128.601218C20.724876 352.978982 0.75438 313.655209 0 273.98853599999995c0.75438-39.611809 20.724876-78.935582 51.901345-121.880378C146.171415 25.72893099999999 357.534979-127.09474399999999 612.80346-128c169.941243 0.123444 320.954406 69.169789 430.229781 151.561803 54.699409 41.298877 99.084386 86.026754 130.576323 128.614935 31.176469 42.944797 51.133249 82.296002 51.901345 121.880378-0.768096 39.598093-20.724876 78.921866-51.901345 121.866663z m-53.684426-204.066653c-80.924402-110.578394-280.464774-254.075189-507.121678-253.142501-151.356063-0.123444-290.01111 62.503813-390.11048 138.106407-49.967389 37.719001-90.210134 78.592682-117.10721 115.04981-27.294841 36.018217-39.570661 69.128641-38.802565 82.117694-0.768096 13.112496 11.507724 46.222921 38.829997 82.296002 80.992982 110.564678 280.464774 254.020325 507.21769 253.101353 151.273767 0.123444 289.915098-62.462665 390.014468-138.106407 50.008537-37.677853 90.210134-78.551534 117.10721-114.994946 27.294841-36.018217 39.570661-69.128641 38.816281-82.186274 0.726948-13.09878-11.548872-46.209205-38.843713-82.241138zM259.328417 625.241587a33.371029 33.371029 0 1 1 47.210473 47.169325l-76.000357 76.000358a33.384745 33.384745 0 0 1-47.196757-47.224189zM616.16388 428.128947a159.722823 159.722823 0 0 1-146.569179-96.12173 20.039076 20.039076 0 1 1 36.745165-15.992856 119.946422 119.946422 0 0 0 109.878878 72.091297 20.011644 20.011644 0 0 1 0 40.023289zM489.222298 256.157736a20.02536 20.02536 0 1 1-39.872413-3.744468 163.426143 163.426143 0 0 1 6.775704-33.809941 20.02536 20.02536 0 1 1 38.226493 11.987784 123.00509 123.00509 0 0 0-5.129784 25.566625z"  horiz-adv-x="1226" />

    
    </font>
</defs>
</svg>
