<?xml version="1.0" encoding="utf-8"?>
<!-- Generator: Adobe Illustrator 21.0.0, SVG Export Plug-In . SVG Version: 6.00 Build 0)  -->
<svg version="1.1" id="图层_1" xmlns="http://www.w3.org/2000/svg" xmlns:xlink="http://www.w3.org/1999/xlink" x="0px" y="0px"
	 viewBox="0 0 160 90" style="enable-background:new 0 0 160 90;" xml:space="preserve">
<style type="text/css">
	.st0{fill:#7E7E7E;}
</style>
<path class="st0" d="M97.1,29.9l0-6.8L78,27.9l-0.1,0c-0.4,0.1-0.8-0.1-1.2-0.3c-0.6-0.5-0.7-1.2-0.4-1.9c0.2-0.3,0.5-0.6,0.8-0.7
	c6.9-2.1,14.1-3.6,21.1-5.4c0.1,0,0.2,0,0.3,0c0.1,0,0.2,0,0.3,0c0.7,0.1,1.3,0.6,1.3,1.4c0.6,11.2,0.1,22.5,0.2,33.7
	c0,2-0.8,3.9-2.2,5.4c-2.9,2.9-7.6,2.9-10.5,0c-1.1-1.1-1.8-2.5-2.1-4c-0.1-0.7-0.2-1.5-0.1-2.3c0.3-2.4,1.7-4.4,3.8-5.6
	c1-0.5,2.1-0.8,3.2-0.9c0.2,0,0.4,0,0.6,0c1.5,0,3,0.5,4.2,1.4l-0.1-15.7c-8,2.6-16.2,4.6-24.4,6.9c0,6.4-0.2,12.7-0.2,19.1
	c0,2.1-0.8,4-2.3,5.4c-3,2.8-7.7,2.7-10.5-0.2c-1.6-1.7-2.3-4-2-6.3c0.5-3.5,3.4-6.1,7-6.3c0.2,0,0.4,0,0.6,0c1.5,0,2.9,0.5,4.1,1.3
	c-0.1-8.3,0.2-16.6,0.2-25c0-0.1,0-0.3,0.1-0.4c0.1-0.4,0.4-0.7,0.7-0.9c0.2-0.1,0.3-0.1,0.5-0.2c0.1,0,0.3,0,0.4,0
	c0.7,0.1,1.2,0.7,1.3,1.4c0.1,2.9,0.2,5.9,0.2,8.9C80.8,34.2,89,32.2,97.1,29.9z M69.6,58.7c-0.2-2.3-2.2-4.1-4.5-4
	c-0.6,0-1.2,0.2-1.8,0.4c-2.2,1.1-3.1,3.7-2.1,5.9c0.2,0.4,0.5,0.8,0.8,1.1c0.8,0.8,1.8,1.3,3,1.4c2.4,0.1,4.5-1.8,4.7-4.2
	C69.6,59.1,69.6,58.9,69.6,58.7z M97.3,54.7c0-2.4-2-4.4-4.5-4.4c0,0-0.1,0-0.1,0c-1.2,0-2.3,0.5-3.1,1.4C88,53.5,88,56.3,89.8,58
	s4.6,1.6,6.3-0.1C96.9,57,97.3,55.9,97.3,54.7L97.3,54.7z"/>
</svg>
